<svg width="24" height="24" viewBox="0 0 24 24" fill="none" xmlns="http://www.w3.org/2000/svg">
<path d="M3.5 15.376V15.3762C3.49939 16.8109 3.9938 18.0117 4.99055 19.0084C5.98727 20.0052 7.18879 20.5 8.625 20.5C9.31021 20.5 9.96173 20.3709 10.5835 20.1131C11.205 19.8554 11.7586 19.4843 12.2464 18.9964L18.9964 12.2464C19.4843 11.7586 19.8554 11.205 20.1131 10.5835C20.3709 9.96173 20.5 9.31021 20.5 8.625V8.62479C20.5006 7.18792 20.0061 5.98658 19.0096 4.99066C18.0129 3.99457 16.8113 3.5 15.375 3.5C14.6898 3.5 14.0383 3.62907 13.4165 3.88687C12.795 4.14458 12.2414 4.51568 11.7536 5.00355L5.00377 11.7533L3.5 15.376ZM3.5 15.376C3.5 14.6908 3.62907 14.0393 3.88687 13.4175M3.5 15.376L3.88687 13.4175M3.88687 13.4175C4.14457 12.796 4.51565 12.2421 5.00355 11.7536L3.88687 13.4175ZM14.9214 14.2036L15.2733 14.5555L15.6269 14.2052L18.3019 11.5552L18.3036 11.5536C18.6855 11.1716 18.9804 10.7234 19.188 10.2136C19.3957 9.70408 19.5 9.17337 19.5 8.625C19.5 7.4922 19.0932 6.51108 18.2916 5.70945C17.4899 4.90782 16.5086 4.50076 15.3753 4.5H15.375C14.8266 4.5 14.2959 4.60435 13.7864 4.81195C13.2766 5.01964 12.8284 5.31453 12.4464 5.69644L12.4448 5.69811L9.79479 8.37311L9.44455 8.72666L9.79645 9.07855L14.9214 14.2036ZM11.5536 18.3036L11.5552 18.3019L8.625 19V19.5C8.62511 19.5 8.62522 19.5 8.62533 19.5C9.17358 19.5 9.70418 19.3956 10.2136 19.188C10.7234 18.9804 11.1716 18.6855 11.5536 18.3036Z" fill="black" stroke="#EDF7FF"/>
</svg>
