<svg width="24" height="24" viewBox="0 0 24 24" fill="none" xmlns="http://www.w3.org/2000/svg">
<path d="M12.2006 3.34783C11.615 3.35626 11.1096 3.67736 10.5455 4.1125C7.53656 6.43286 3.84047 9.65036 2.80659 11.9069C2.41781 11.3908 1.06341 11.5048 1.06341 12.2189C1.06341 12.8316 2.00583 13.0011 2.54437 12.739C2.51555 12.9421 2.52 13.1318 2.56055 13.3073C2.26209 13.3956 2.0318 13.5883 2.0318 13.8829C2.0318 14.528 3.07664 14.6833 3.59475 14.3591C3.83638 14.4919 4.08367 14.614 4.33594 14.7253C4.2975 14.7962 4.27734 14.877 4.27734 14.967C4.27734 15.5115 5.02116 15.706 5.565 15.5588C5.55816 15.5921 5.55469 15.6278 5.55469 15.6643C5.55469 16.5218 7.40184 16.5141 7.40184 15.6643C7.40184 15.6574 7.40062 15.6505 7.40044 15.6438C8.06958 15.772 8.7652 15.8678 9.47606 15.9323C9.61683 16.6036 11.0069 16.6312 11.269 16.029C11.9737 16.0426 12.6829 16.029 13.3857 15.988C13.3793 16.0205 13.374 16.055 13.374 16.0905C13.374 16.7547 14.4827 16.8992 14.9824 16.5358C15.5313 17.3505 17.6074 17.1968 17.6074 16.0964C17.6074 15.9884 17.5883 15.8897 17.5517 15.8005C18.0001 16.0116 18.6097 16.0454 19.1103 15.9016C19.2246 16.6754 20.9517 16.6397 20.9517 15.818C20.9517 15.376 20.4528 15.1698 19.9731 15.1896C20.0002 15.1054 20.0156 15.0146 20.0156 14.9172C20.0156 14.8305 20.0034 14.7499 19.9818 14.674C20.2201 14.5805 20.4495 14.4818 20.6689 14.3796C21.2427 14.1122 21.4935 13.6798 21.498 13.1344C22.0386 13.3862 22.9658 13.2078 22.9658 12.6057C22.9658 11.928 21.7909 11.8009 21.3149 12.1999C20.4453 9.77926 16.6629 6.15517 13.7783 3.98795C13.1606 3.52389 12.6561 3.34126 12.2006 3.34783ZM22.4678 14.1804C22.0059 14.1824 21.5435 14.3949 21.5435 14.8118C21.5435 15.6692 23.3907 15.6616 23.3907 14.8118C23.3907 14.3868 22.9297 14.1783 22.4678 14.1804H22.4678ZM1.63922 14.7224C1.17731 14.7244 0.714844 14.9369 0.714844 15.3537C0.714844 16.2113 2.562 16.2035 2.562 15.3537C2.562 14.9288 2.10103 14.7204 1.63917 14.7224L1.63922 14.7224ZM3.76753 16.0554C3.2655 16.0576 2.763 16.2812 2.72897 16.7189C2.241 16.6941 1.72116 16.9054 1.72116 17.3473C1.72116 18.1602 3.38072 18.1957 3.55364 17.4733C4.13419 17.5479 4.80755 17.3118 4.80755 16.7673C4.80755 16.2889 4.28747 16.0531 3.76753 16.0554ZM7.94972 16.5431C7.63767 16.5445 7.32534 16.6416 7.15566 16.8332C6.52322 16.7001 5.70844 16.9398 5.70844 17.5407C5.70844 18.4509 7.47502 18.5333 7.82517 17.8088C8.32458 17.8496 8.87255 17.6377 8.87255 17.1745C8.87255 16.7496 8.41162 16.5411 7.94977 16.5431H7.94972ZM12.1303 16.6193C11.6685 16.6214 11.2061 16.8339 11.2061 17.2507C11.2061 18.1082 13.0547 18.1006 13.0547 17.2507C13.0547 16.8258 12.5922 16.6173 12.1303 16.6193ZM22.0034 16.9036C21.3964 16.9062 20.7891 17.1862 20.7891 17.7342C20.7891 18.8612 23.2162 18.851 23.2162 17.7341C23.2162 17.1757 22.6105 16.9009 22.0034 16.9036ZM18.479 17.2375C18.0171 17.2395 17.5546 17.452 17.5546 17.8688C17.5546 18.7264 19.4033 18.7187 19.4033 17.8688C19.4033 17.4439 18.9408 17.2355 18.4789 17.2375L18.479 17.2375ZM9.98137 17.8821C9.45178 17.8843 8.92233 18.1277 8.92233 18.6056C8.92233 19.191 9.67261 19.4238 10.2803 19.3117C10.6011 20.1885 12.6665 20.1002 12.6665 19.0699C12.6665 18.3566 11.6771 18.1082 10.9613 18.3068C10.7946 18.0206 10.3882 17.8802 9.98137 17.882V17.8821ZM15.6928 18.2072C15.4017 18.2085 15.1095 18.2935 14.9341 18.4606C14.3905 18.229 13.4913 18.4118 13.4913 18.9938C13.4912 19.6922 14.7165 19.8159 15.1714 19.3791C15.715 19.6146 16.6157 19.4319 16.6157 18.8386C16.6157 18.4136 16.1547 18.2052 15.6928 18.2072L15.6928 18.2072ZM4.42687 18.3274C3.89719 18.3296 3.36628 18.573 3.36628 19.051C3.36628 20.0343 5.48597 20.0255 5.48597 19.051C5.48597 18.5637 4.95647 18.325 4.42687 18.3273V18.3274ZM20.1328 18.9761C19.6129 18.9785 19.0927 19.2174 19.0927 19.6866C19.0927 20.652 21.1728 20.6433 21.1728 19.6866C21.1728 19.2082 20.6527 18.9738 20.1328 18.9761V18.9761ZM7.44581 19.0626C6.91612 19.0649 6.38672 19.3082 6.38672 19.7862C6.38672 20.7696 8.50491 20.7608 8.50491 19.7862C8.50491 19.299 7.97541 19.0603 7.44581 19.0626Z" fill="#EDF7FF"/>
</svg>
